<?xml version="1.0" encoding="UTF-8" standalone="no"?>
<!DOCTYPE svg PUBLIC "-//W3C//DTD SVG 1.1//EN" "http://www.w3.org/Graphics/SVG/1.1/DTD/svg11.dtd">
<svg width="100%" height="100%" viewBox="0 0 1089 787" version="1.1" xmlns="http://www.w3.org/2000/svg" xmlns:xlink="http://www.w3.org/1999/xlink" xml:space="preserve" xmlns:serif="http://www.serif.com/" style="fill-rule:evenodd;clip-rule:evenodd;stroke-linejoin:round;stroke-miterlimit:2;">
    <g id="logo" transform="matrix(1.00964,0,0,0.729653,-1.45662,-0.753341)">
        <rect x="1.443" y="1.032" width="1078.24" height="1078.24" style="fill:none;"/>
        <g id="bas">
            <g id="texte" transform="matrix(0.990455,0,0,1.37051,408.412,868.897)">
                <g transform="matrix(114,0,0,114,-32.2418,108.057)">
                    <path d="M0.352,-0.394C0.321,-0.394 0.295,-0.391 0.274,-0.385C0.253,-0.378 0.234,-0.366 0.218,-0.349L0.218,0L0.046,0L0.046,-0.55L0.197,-0.55L0.209,-0.456C0.216,-0.469 0.225,-0.481 0.235,-0.494C0.245,-0.506 0.256,-0.517 0.269,-0.527C0.282,-0.536 0.296,-0.544 0.312,-0.55C0.327,-0.556 0.344,-0.559 0.362,-0.559C0.371,-0.559 0.379,-0.559 0.387,-0.558C0.394,-0.557 0.401,-0.556 0.406,-0.555L0.406,-0.393L0.4,-0.389C0.385,-0.392 0.369,-0.394 0.352,-0.394Z" style="fill-rule:nonzero;"/>
                </g>
                <g transform="matrix(114,0,0,114,15.2962,108.057)">
                    <path d="M0.296,-0.447C0.268,-0.447 0.245,-0.439 0.227,-0.422C0.209,-0.405 0.197,-0.378 0.191,-0.341L0.384,-0.341C0.382,-0.377 0.374,-0.404 0.36,-0.421C0.346,-0.438 0.325,-0.447 0.296,-0.447ZM0.53,-0.028C0.511,-0.018 0.486,-0.009 0.453,0C0.42,0.009 0.38,0.013 0.332,0.013C0.227,0.013 0.148,-0.013 0.097,-0.065C0.046,-0.117 0.02,-0.189 0.02,-0.28C0.02,-0.321 0.027,-0.359 0.04,-0.394C0.053,-0.429 0.071,-0.458 0.095,-0.484C0.119,-0.509 0.148,-0.528 0.182,-0.542C0.216,-0.556 0.254,-0.563 0.295,-0.563C0.335,-0.563 0.371,-0.557 0.404,-0.544C0.437,-0.531 0.464,-0.512 0.486,-0.485C0.508,-0.458 0.524,-0.424 0.534,-0.383C0.544,-0.341 0.546,-0.291 0.541,-0.233L0.189,-0.233C0.196,-0.191 0.212,-0.161 0.238,-0.143C0.263,-0.125 0.3,-0.116 0.348,-0.116C0.387,-0.116 0.42,-0.12 0.447,-0.128C0.474,-0.135 0.499,-0.145 0.523,-0.156L0.53,-0.153L0.53,-0.028Z" style="fill-rule:nonzero;"/>
                </g>
                <g transform="matrix(114,0,0,114,79.5922,108.057)">
                    <path d="M0.319,0.013C0.273,0.013 0.232,0.007 0.195,-0.006C0.158,-0.019 0.126,-0.037 0.101,-0.062C0.075,-0.087 0.055,-0.117 0.041,-0.153C0.027,-0.189 0.02,-0.23 0.02,-0.276C0.02,-0.323 0.028,-0.364 0.043,-0.4C0.058,-0.436 0.078,-0.466 0.105,-0.49C0.131,-0.514 0.162,-0.532 0.199,-0.545C0.235,-0.557 0.274,-0.563 0.316,-0.563C0.35,-0.563 0.38,-0.56 0.405,-0.554C0.43,-0.547 0.451,-0.539 0.466,-0.53L0.466,-0.403L0.459,-0.4C0.442,-0.411 0.425,-0.419 0.406,-0.426C0.387,-0.432 0.365,-0.435 0.338,-0.435C0.319,-0.435 0.3,-0.432 0.283,-0.426C0.266,-0.419 0.251,-0.41 0.238,-0.397C0.225,-0.384 0.215,-0.367 0.208,-0.347C0.201,-0.327 0.197,-0.303 0.197,-0.276C0.197,-0.221 0.21,-0.18 0.237,-0.153C0.264,-0.126 0.298,-0.113 0.34,-0.113C0.369,-0.113 0.393,-0.117 0.414,-0.125C0.434,-0.132 0.453,-0.142 0.47,-0.154L0.478,-0.151L0.478,-0.03C0.463,-0.019 0.442,-0.009 0.416,0C0.389,0.009 0.357,0.013 0.319,0.013Z" style="fill-rule:nonzero;"/>
                </g>
                <g transform="matrix(114,0,0,114,136.934,108.057)">
                    <path d="M0.307,-0.427C0.29,-0.427 0.274,-0.424 0.26,-0.419C0.245,-0.413 0.231,-0.405 0.218,-0.394L0.218,0L0.046,0L0.046,-0.722L0.218,-0.751L0.218,-0.483C0.227,-0.494 0.238,-0.504 0.249,-0.514C0.26,-0.523 0.272,-0.532 0.286,-0.539C0.299,-0.546 0.314,-0.552 0.331,-0.557C0.347,-0.561 0.365,-0.563 0.385,-0.563C0.437,-0.563 0.479,-0.548 0.511,-0.517C0.542,-0.486 0.558,-0.437 0.558,-0.37L0.558,0L0.385,0L0.385,-0.342C0.385,-0.373 0.378,-0.395 0.364,-0.408C0.349,-0.421 0.33,-0.427 0.307,-0.427Z" style="fill-rule:nonzero;"/>
                </g>
                <g transform="matrix(114,0,0,114,205.448,108.057)">
                    <path d="M0.296,-0.447C0.268,-0.447 0.245,-0.439 0.227,-0.422C0.209,-0.405 0.197,-0.378 0.191,-0.341L0.384,-0.341C0.382,-0.377 0.374,-0.404 0.36,-0.421C0.346,-0.438 0.325,-0.447 0.296,-0.447ZM0.53,-0.028C0.511,-0.018 0.486,-0.009 0.453,0C0.42,0.009 0.38,0.013 0.332,0.013C0.227,0.013 0.148,-0.013 0.097,-0.065C0.046,-0.117 0.02,-0.189 0.02,-0.28C0.02,-0.321 0.027,-0.359 0.04,-0.394C0.053,-0.429 0.071,-0.458 0.095,-0.484C0.119,-0.509 0.148,-0.528 0.182,-0.542C0.216,-0.556 0.254,-0.563 0.295,-0.563C0.335,-0.563 0.371,-0.557 0.404,-0.544C0.437,-0.531 0.464,-0.512 0.486,-0.485C0.508,-0.458 0.524,-0.424 0.534,-0.383C0.544,-0.341 0.546,-0.291 0.541,-0.233L0.189,-0.233C0.196,-0.191 0.212,-0.161 0.238,-0.143C0.263,-0.125 0.3,-0.116 0.348,-0.116C0.387,-0.116 0.42,-0.12 0.447,-0.128C0.474,-0.135 0.499,-0.145 0.523,-0.156L0.53,-0.153L0.53,-0.028Z" style="fill-rule:nonzero;"/>
                </g>
                <g transform="matrix(114,0,0,114,269.744,108.057)">
                    <path d="M0.352,-0.394C0.321,-0.394 0.295,-0.391 0.274,-0.385C0.253,-0.378 0.234,-0.366 0.218,-0.349L0.218,0L0.046,0L0.046,-0.55L0.197,-0.55L0.209,-0.456C0.216,-0.469 0.225,-0.481 0.235,-0.494C0.245,-0.506 0.256,-0.517 0.269,-0.527C0.282,-0.536 0.296,-0.544 0.312,-0.55C0.327,-0.556 0.344,-0.559 0.362,-0.559C0.371,-0.559 0.379,-0.559 0.387,-0.558C0.394,-0.557 0.401,-0.556 0.406,-0.555L0.406,-0.393L0.4,-0.389C0.385,-0.392 0.369,-0.394 0.352,-0.394Z" style="fill-rule:nonzero;"/>
                </g>
                <g transform="matrix(114,0,0,114,317.282,108.057)">
                    <path d="M0.319,0.013C0.273,0.013 0.232,0.007 0.195,-0.006C0.158,-0.019 0.126,-0.037 0.101,-0.062C0.075,-0.087 0.055,-0.117 0.041,-0.153C0.027,-0.189 0.02,-0.23 0.02,-0.276C0.02,-0.323 0.028,-0.364 0.043,-0.4C0.058,-0.436 0.078,-0.466 0.105,-0.49C0.131,-0.514 0.162,-0.532 0.199,-0.545C0.235,-0.557 0.274,-0.563 0.316,-0.563C0.35,-0.563 0.38,-0.56 0.405,-0.554C0.43,-0.547 0.451,-0.539 0.466,-0.53L0.466,-0.403L0.459,-0.4C0.442,-0.411 0.425,-0.419 0.406,-0.426C0.387,-0.432 0.365,-0.435 0.338,-0.435C0.319,-0.435 0.3,-0.432 0.283,-0.426C0.266,-0.419 0.251,-0.41 0.238,-0.397C0.225,-0.384 0.215,-0.367 0.208,-0.347C0.201,-0.327 0.197,-0.303 0.197,-0.276C0.197,-0.221 0.21,-0.18 0.237,-0.153C0.264,-0.126 0.298,-0.113 0.34,-0.113C0.369,-0.113 0.393,-0.117 0.414,-0.125C0.434,-0.132 0.453,-0.142 0.47,-0.154L0.478,-0.151L0.478,-0.03C0.463,-0.019 0.442,-0.009 0.416,0C0.389,0.009 0.357,0.013 0.319,0.013Z" style="fill-rule:nonzero;"/>
                </g>
                <g transform="matrix(114,0,0,114,374.624,108.057)">
                    <path d="M0.307,-0.427C0.29,-0.427 0.274,-0.424 0.26,-0.419C0.245,-0.413 0.231,-0.405 0.218,-0.394L0.218,0L0.046,0L0.046,-0.722L0.218,-0.751L0.218,-0.483C0.227,-0.494 0.238,-0.504 0.249,-0.514C0.26,-0.523 0.272,-0.532 0.286,-0.539C0.299,-0.546 0.314,-0.552 0.331,-0.557C0.347,-0.561 0.365,-0.563 0.385,-0.563C0.437,-0.563 0.479,-0.548 0.511,-0.517C0.542,-0.486 0.558,-0.437 0.558,-0.37L0.558,0L0.385,0L0.385,-0.342C0.385,-0.373 0.378,-0.395 0.364,-0.408C0.349,-0.421 0.33,-0.427 0.307,-0.427Z" style="fill-rule:nonzero;"/>
                </g>
                <g transform="matrix(114,0,0,114,443.138,108.057)">
                    <path d="M0.296,-0.447C0.268,-0.447 0.245,-0.439 0.227,-0.422C0.209,-0.405 0.197,-0.378 0.191,-0.341L0.384,-0.341C0.382,-0.377 0.374,-0.404 0.36,-0.421C0.346,-0.438 0.325,-0.447 0.296,-0.447ZM0.53,-0.028C0.511,-0.018 0.486,-0.009 0.453,0C0.42,0.009 0.38,0.013 0.332,0.013C0.227,0.013 0.148,-0.013 0.097,-0.065C0.046,-0.117 0.02,-0.189 0.02,-0.28C0.02,-0.321 0.027,-0.359 0.04,-0.394C0.053,-0.429 0.071,-0.458 0.095,-0.484C0.119,-0.509 0.148,-0.528 0.182,-0.542C0.216,-0.556 0.254,-0.563 0.295,-0.563C0.335,-0.563 0.371,-0.557 0.404,-0.544C0.437,-0.531 0.464,-0.512 0.486,-0.485C0.508,-0.458 0.524,-0.424 0.534,-0.383C0.544,-0.341 0.546,-0.291 0.541,-0.233L0.189,-0.233C0.196,-0.191 0.212,-0.161 0.238,-0.143C0.263,-0.125 0.3,-0.116 0.348,-0.116C0.387,-0.116 0.42,-0.12 0.447,-0.128C0.474,-0.135 0.499,-0.145 0.523,-0.156L0.53,-0.153L0.53,-0.028Z" style="fill-rule:nonzero;"/>
                </g>
            </g>
            <g transform="matrix(0.990455,0,0,1.37051,1.44272,1.03247)">
                <path d="M320.999,596.351L771.843,659.231L774.33,641.404L323.486,578.524L320.999,596.351Z"/>
            </g>
        </g>
    </g>
</svg>
