<?xml version="1.0" encoding="UTF-8" standalone="no"?>
<!DOCTYPE svg PUBLIC "-//W3C//DTD SVG 1.1//EN" "http://www.w3.org/Graphics/SVG/1.1/DTD/svg11.dtd">
<svg width="100%" height="100%" viewBox="0 0 1089 787" version="1.1" xmlns="http://www.w3.org/2000/svg" xmlns:xlink="http://www.w3.org/1999/xlink" xml:space="preserve" xmlns:serif="http://www.serif.com/" style="fill-rule:evenodd;clip-rule:evenodd;stroke-linejoin:round;stroke-miterlimit:2;">
    <g id="logo" transform="matrix(1.00964,0,0,0.729653,-1.45662,-0.753341)">
        <rect x="1.443" y="1.032" width="1078.24" height="1078.24" style="fill:none;"/>
        <g id="haut">
            <g id="design" transform="matrix(0.990455,0,0,1.37051,56.9598,50.5637)">
                <g transform="matrix(114,0,0,114,-32.2418,108.057)">
                    <path d="M0.305,-0.12C0.327,-0.12 0.346,-0.123 0.362,-0.13C0.377,-0.136 0.391,-0.145 0.404,-0.156L0.404,-0.401C0.391,-0.412 0.378,-0.421 0.363,-0.427C0.347,-0.433 0.329,-0.436 0.308,-0.436C0.273,-0.436 0.245,-0.422 0.225,-0.394C0.205,-0.366 0.195,-0.325 0.195,-0.271C0.195,-0.218 0.205,-0.18 0.226,-0.156C0.247,-0.132 0.273,-0.12 0.305,-0.12ZM0.419,-0.071C0.4,-0.044 0.377,-0.024 0.35,-0.009C0.323,0.006 0.29,0.013 0.251,0.013C0.217,0.013 0.186,0.007 0.158,-0.005C0.129,-0.017 0.105,-0.035 0.085,-0.059C0.064,-0.082 0.048,-0.112 0.038,-0.147C0.027,-0.182 0.021,-0.224 0.021,-0.271C0.021,-0.319 0.027,-0.361 0.039,-0.398C0.05,-0.435 0.067,-0.465 0.088,-0.49C0.109,-0.514 0.133,-0.532 0.162,-0.545C0.191,-0.557 0.222,-0.563 0.256,-0.563C0.289,-0.563 0.318,-0.558 0.342,-0.547C0.366,-0.536 0.387,-0.52 0.404,-0.501L0.404,-0.722L0.576,-0.751L0.576,0L0.436,0L0.419,-0.071Z" style="fill-rule:nonzero;"/>
                </g>
                <g transform="matrix(114,0,0,114,38.6662,108.057)">
                    <path d="M0.296,-0.447C0.268,-0.447 0.245,-0.439 0.227,-0.422C0.209,-0.405 0.197,-0.378 0.191,-0.341L0.384,-0.341C0.382,-0.377 0.374,-0.404 0.36,-0.421C0.346,-0.438 0.325,-0.447 0.296,-0.447ZM0.53,-0.028C0.511,-0.018 0.486,-0.009 0.453,0C0.42,0.009 0.38,0.013 0.332,0.013C0.227,0.013 0.148,-0.013 0.097,-0.065C0.046,-0.117 0.02,-0.189 0.02,-0.28C0.02,-0.321 0.027,-0.359 0.04,-0.394C0.053,-0.429 0.071,-0.458 0.095,-0.484C0.119,-0.509 0.148,-0.528 0.182,-0.542C0.216,-0.556 0.254,-0.563 0.295,-0.563C0.335,-0.563 0.371,-0.557 0.404,-0.544C0.437,-0.531 0.464,-0.512 0.486,-0.485C0.508,-0.458 0.524,-0.424 0.534,-0.383C0.544,-0.341 0.546,-0.291 0.541,-0.233L0.189,-0.233C0.196,-0.191 0.212,-0.161 0.238,-0.143C0.263,-0.125 0.3,-0.116 0.348,-0.116C0.387,-0.116 0.42,-0.12 0.447,-0.128C0.474,-0.135 0.499,-0.145 0.523,-0.156L0.53,-0.153L0.53,-0.028Z" style="fill-rule:nonzero;"/>
                </g>
                <g transform="matrix(114,0,0,114,103.532,108.057)">
                    <path d="M0.215,0.012C0.168,0.012 0.13,0.008 0.101,-0.002C0.071,-0.011 0.045,-0.022 0.023,-0.035L0.023,-0.164L0.029,-0.167C0.052,-0.15 0.078,-0.136 0.107,-0.126C0.136,-0.116 0.168,-0.111 0.201,-0.111C0.228,-0.111 0.248,-0.115 0.261,-0.124C0.274,-0.132 0.28,-0.143 0.28,-0.158C0.28,-0.171 0.276,-0.181 0.267,-0.187C0.258,-0.192 0.241,-0.198 0.216,-0.204L0.167,-0.216C0.123,-0.227 0.088,-0.245 0.061,-0.272C0.034,-0.298 0.021,-0.335 0.021,-0.384C0.021,-0.439 0.04,-0.482 0.078,-0.515C0.116,-0.548 0.169,-0.564 0.236,-0.564C0.273,-0.564 0.305,-0.561 0.332,-0.556C0.359,-0.551 0.384,-0.543 0.405,-0.534L0.405,-0.41L0.399,-0.407C0.38,-0.417 0.357,-0.426 0.33,-0.433C0.303,-0.44 0.273,-0.443 0.241,-0.443C0.215,-0.443 0.197,-0.439 0.188,-0.432C0.178,-0.425 0.173,-0.414 0.173,-0.401C0.173,-0.388 0.177,-0.379 0.185,-0.373C0.193,-0.366 0.206,-0.361 0.225,-0.356L0.274,-0.344C0.302,-0.337 0.326,-0.329 0.347,-0.32C0.368,-0.311 0.385,-0.301 0.399,-0.288C0.413,-0.275 0.423,-0.26 0.43,-0.243C0.437,-0.225 0.44,-0.203 0.44,-0.178C0.44,-0.117 0.42,-0.071 0.38,-0.038C0.34,-0.005 0.285,0.012 0.215,0.012Z" style="fill-rule:nonzero;"/>
                </g>
                <g transform="matrix(114,0,0,114,155.858,108.057)">
                    <path d="M0.048,-0.745L0.219,-0.745L0.219,-0.606L0.048,-0.606L0.048,-0.745ZM0.048,-0.55L0.22,-0.55L0.22,0L0.048,0L0.048,-0.55Z" style="fill-rule:nonzero;"/>
                </g>
                <g transform="matrix(114,0,0,114,185.84,108.057)">
                    <path d="M0.262,-0.291C0.285,-0.291 0.303,-0.298 0.318,-0.313C0.332,-0.328 0.339,-0.348 0.339,-0.374C0.339,-0.401 0.332,-0.421 0.318,-0.436C0.303,-0.451 0.285,-0.458 0.262,-0.458C0.239,-0.458 0.221,-0.451 0.207,-0.436C0.192,-0.421 0.185,-0.401 0.185,-0.374C0.185,-0.348 0.192,-0.328 0.207,-0.313C0.221,-0.298 0.239,-0.291 0.262,-0.291ZM0.262,0.222C0.175,0.222 0.109,0.212 0.065,0.191C0.021,0.17 -0.001,0.138 0,0.094C0,0.079 0.003,0.065 0.009,0.053C0.015,0.041 0.022,0.032 0.029,0.025L0.163,0.025L0.166,0.031C0.163,0.034 0.161,0.039 0.159,0.044C0.157,0.049 0.156,0.056 0.156,0.064C0.156,0.079 0.164,0.091 0.181,0.1C0.197,0.108 0.224,0.112 0.262,0.112C0.304,0.112 0.335,0.106 0.356,0.093C0.376,0.08 0.386,0.064 0.386,0.045C0.386,0.032 0.382,0.023 0.374,0.019C0.366,0.015 0.352,0.012 0.333,0.011L0.184,0.005C0.159,0.004 0.137,0.001 0.119,-0.006C0.101,-0.013 0.086,-0.021 0.075,-0.031C0.063,-0.041 0.054,-0.053 0.049,-0.066C0.044,-0.079 0.041,-0.093 0.041,-0.108C0.041,-0.135 0.048,-0.158 0.062,-0.178C0.076,-0.198 0.096,-0.214 0.121,-0.226C0.092,-0.241 0.069,-0.262 0.054,-0.287C0.038,-0.312 0.03,-0.342 0.03,-0.375C0.03,-0.402 0.035,-0.428 0.047,-0.451C0.057,-0.474 0.073,-0.493 0.093,-0.51C0.113,-0.526 0.137,-0.539 0.166,-0.548C0.194,-0.557 0.226,-0.562 0.261,-0.562C0.284,-0.562 0.305,-0.56 0.326,-0.556C0.346,-0.551 0.365,-0.545 0.382,-0.538L0.548,-0.557L0.548,-0.437L0.476,-0.437C0.481,-0.426 0.486,-0.415 0.489,-0.403C0.492,-0.391 0.493,-0.378 0.493,-0.365C0.493,-0.341 0.488,-0.319 0.478,-0.298C0.467,-0.277 0.452,-0.258 0.432,-0.243C0.412,-0.228 0.388,-0.216 0.359,-0.207C0.33,-0.198 0.298,-0.194 0.261,-0.194C0.24,-0.194 0.222,-0.195 0.207,-0.198C0.19,-0.189 0.181,-0.177 0.181,-0.16C0.181,-0.151 0.185,-0.145 0.192,-0.142C0.199,-0.139 0.209,-0.137 0.222,-0.136L0.374,-0.129C0.429,-0.126 0.473,-0.113 0.504,-0.09C0.535,-0.066 0.551,-0.027 0.551,0.027C0.551,0.086 0.527,0.134 0.478,0.169C0.429,0.204 0.357,0.222 0.262,0.222Z" style="fill-rule:nonzero;"/>
                </g>
                <g transform="matrix(114,0,0,114,249.224,108.057)">
                    <path d="M0.307,-0.427C0.29,-0.427 0.274,-0.424 0.26,-0.419C0.245,-0.414 0.231,-0.406 0.218,-0.395L0.218,0L0.046,0L0.046,-0.55L0.197,-0.55L0.208,-0.478C0.217,-0.489 0.228,-0.499 0.239,-0.51C0.25,-0.52 0.263,-0.529 0.277,-0.537C0.291,-0.545 0.307,-0.551 0.324,-0.556C0.341,-0.561 0.36,-0.563 0.381,-0.563C0.406,-0.563 0.43,-0.559 0.452,-0.552C0.473,-0.545 0.492,-0.533 0.508,-0.518C0.523,-0.502 0.536,-0.482 0.545,-0.458C0.554,-0.433 0.558,-0.404 0.558,-0.37L0.558,0L0.385,0L0.385,-0.342C0.385,-0.373 0.378,-0.395 0.364,-0.408C0.349,-0.421 0.33,-0.427 0.307,-0.427Z" style="fill-rule:nonzero;"/>
                </g>
            </g>
            <g id="en" transform="matrix(0.990455,0,0,1.37051,939.605,-14.1574)">
                <text x="-32.242px" y="108.057px" style="font-family:'SanomatSans-Bold', 'Sanomat Sans';font-weight:700;font-size:114px;">en</text>
            </g>
            <g id="forme" transform="matrix(0.990455,0,0,1.37051,1.44272,1.03247)">
                <path d="M160.137,213.438L1044.76,134.381L1043.15,116.452L158.535,195.509L160.137,213.438Z"/>
            </g>
        </g>
        <g id="bas">
            <g id="texte" transform="matrix(0.990455,0,0,1.37051,408.412,868.897)">
                <g transform="matrix(114,0,0,114,-32.2418,108.057)">
                    <path d="M0.352,-0.394C0.321,-0.394 0.295,-0.391 0.274,-0.385C0.253,-0.378 0.234,-0.366 0.218,-0.349L0.218,0L0.046,0L0.046,-0.55L0.197,-0.55L0.209,-0.456C0.216,-0.469 0.225,-0.481 0.235,-0.494C0.245,-0.506 0.256,-0.517 0.269,-0.527C0.282,-0.536 0.296,-0.544 0.312,-0.55C0.327,-0.556 0.344,-0.559 0.362,-0.559C0.371,-0.559 0.379,-0.559 0.387,-0.558C0.394,-0.557 0.401,-0.556 0.406,-0.555L0.406,-0.393L0.4,-0.389C0.385,-0.392 0.369,-0.394 0.352,-0.394Z" style="fill-rule:nonzero;"/>
                </g>
                <g transform="matrix(114,0,0,114,15.2962,108.057)">
                    <path d="M0.296,-0.447C0.268,-0.447 0.245,-0.439 0.227,-0.422C0.209,-0.405 0.197,-0.378 0.191,-0.341L0.384,-0.341C0.382,-0.377 0.374,-0.404 0.36,-0.421C0.346,-0.438 0.325,-0.447 0.296,-0.447ZM0.53,-0.028C0.511,-0.018 0.486,-0.009 0.453,0C0.42,0.009 0.38,0.013 0.332,0.013C0.227,0.013 0.148,-0.013 0.097,-0.065C0.046,-0.117 0.02,-0.189 0.02,-0.28C0.02,-0.321 0.027,-0.359 0.04,-0.394C0.053,-0.429 0.071,-0.458 0.095,-0.484C0.119,-0.509 0.148,-0.528 0.182,-0.542C0.216,-0.556 0.254,-0.563 0.295,-0.563C0.335,-0.563 0.371,-0.557 0.404,-0.544C0.437,-0.531 0.464,-0.512 0.486,-0.485C0.508,-0.458 0.524,-0.424 0.534,-0.383C0.544,-0.341 0.546,-0.291 0.541,-0.233L0.189,-0.233C0.196,-0.191 0.212,-0.161 0.238,-0.143C0.263,-0.125 0.3,-0.116 0.348,-0.116C0.387,-0.116 0.42,-0.12 0.447,-0.128C0.474,-0.135 0.499,-0.145 0.523,-0.156L0.53,-0.153L0.53,-0.028Z" style="fill-rule:nonzero;"/>
                </g>
                <g transform="matrix(114,0,0,114,79.5922,108.057)">
                    <path d="M0.319,0.013C0.273,0.013 0.232,0.007 0.195,-0.006C0.158,-0.019 0.126,-0.037 0.101,-0.062C0.075,-0.087 0.055,-0.117 0.041,-0.153C0.027,-0.189 0.02,-0.23 0.02,-0.276C0.02,-0.323 0.028,-0.364 0.043,-0.4C0.058,-0.436 0.078,-0.466 0.105,-0.49C0.131,-0.514 0.162,-0.532 0.199,-0.545C0.235,-0.557 0.274,-0.563 0.316,-0.563C0.35,-0.563 0.38,-0.56 0.405,-0.554C0.43,-0.547 0.451,-0.539 0.466,-0.53L0.466,-0.403L0.459,-0.4C0.442,-0.411 0.425,-0.419 0.406,-0.426C0.387,-0.432 0.365,-0.435 0.338,-0.435C0.319,-0.435 0.3,-0.432 0.283,-0.426C0.266,-0.419 0.251,-0.41 0.238,-0.397C0.225,-0.384 0.215,-0.367 0.208,-0.347C0.201,-0.327 0.197,-0.303 0.197,-0.276C0.197,-0.221 0.21,-0.18 0.237,-0.153C0.264,-0.126 0.298,-0.113 0.34,-0.113C0.369,-0.113 0.393,-0.117 0.414,-0.125C0.434,-0.132 0.453,-0.142 0.47,-0.154L0.478,-0.151L0.478,-0.03C0.463,-0.019 0.442,-0.009 0.416,0C0.389,0.009 0.357,0.013 0.319,0.013Z" style="fill-rule:nonzero;"/>
                </g>
                <g transform="matrix(114,0,0,114,136.934,108.057)">
                    <path d="M0.307,-0.427C0.29,-0.427 0.274,-0.424 0.26,-0.419C0.245,-0.413 0.231,-0.405 0.218,-0.394L0.218,0L0.046,0L0.046,-0.722L0.218,-0.751L0.218,-0.483C0.227,-0.494 0.238,-0.504 0.249,-0.514C0.26,-0.523 0.272,-0.532 0.286,-0.539C0.299,-0.546 0.314,-0.552 0.331,-0.557C0.347,-0.561 0.365,-0.563 0.385,-0.563C0.437,-0.563 0.479,-0.548 0.511,-0.517C0.542,-0.486 0.558,-0.437 0.558,-0.37L0.558,0L0.385,0L0.385,-0.342C0.385,-0.373 0.378,-0.395 0.364,-0.408C0.349,-0.421 0.33,-0.427 0.307,-0.427Z" style="fill-rule:nonzero;"/>
                </g>
                <g transform="matrix(114,0,0,114,205.448,108.057)">
                    <path d="M0.296,-0.447C0.268,-0.447 0.245,-0.439 0.227,-0.422C0.209,-0.405 0.197,-0.378 0.191,-0.341L0.384,-0.341C0.382,-0.377 0.374,-0.404 0.36,-0.421C0.346,-0.438 0.325,-0.447 0.296,-0.447ZM0.53,-0.028C0.511,-0.018 0.486,-0.009 0.453,0C0.42,0.009 0.38,0.013 0.332,0.013C0.227,0.013 0.148,-0.013 0.097,-0.065C0.046,-0.117 0.02,-0.189 0.02,-0.28C0.02,-0.321 0.027,-0.359 0.04,-0.394C0.053,-0.429 0.071,-0.458 0.095,-0.484C0.119,-0.509 0.148,-0.528 0.182,-0.542C0.216,-0.556 0.254,-0.563 0.295,-0.563C0.335,-0.563 0.371,-0.557 0.404,-0.544C0.437,-0.531 0.464,-0.512 0.486,-0.485C0.508,-0.458 0.524,-0.424 0.534,-0.383C0.544,-0.341 0.546,-0.291 0.541,-0.233L0.189,-0.233C0.196,-0.191 0.212,-0.161 0.238,-0.143C0.263,-0.125 0.3,-0.116 0.348,-0.116C0.387,-0.116 0.42,-0.12 0.447,-0.128C0.474,-0.135 0.499,-0.145 0.523,-0.156L0.53,-0.153L0.53,-0.028Z" style="fill-rule:nonzero;"/>
                </g>
                <g transform="matrix(114,0,0,114,269.744,108.057)">
                    <path d="M0.352,-0.394C0.321,-0.394 0.295,-0.391 0.274,-0.385C0.253,-0.378 0.234,-0.366 0.218,-0.349L0.218,0L0.046,0L0.046,-0.55L0.197,-0.55L0.209,-0.456C0.216,-0.469 0.225,-0.481 0.235,-0.494C0.245,-0.506 0.256,-0.517 0.269,-0.527C0.282,-0.536 0.296,-0.544 0.312,-0.55C0.327,-0.556 0.344,-0.559 0.362,-0.559C0.371,-0.559 0.379,-0.559 0.387,-0.558C0.394,-0.557 0.401,-0.556 0.406,-0.555L0.406,-0.393L0.4,-0.389C0.385,-0.392 0.369,-0.394 0.352,-0.394Z" style="fill-rule:nonzero;"/>
                </g>
                <g transform="matrix(114,0,0,114,317.282,108.057)">
                    <path d="M0.319,0.013C0.273,0.013 0.232,0.007 0.195,-0.006C0.158,-0.019 0.126,-0.037 0.101,-0.062C0.075,-0.087 0.055,-0.117 0.041,-0.153C0.027,-0.189 0.02,-0.23 0.02,-0.276C0.02,-0.323 0.028,-0.364 0.043,-0.4C0.058,-0.436 0.078,-0.466 0.105,-0.49C0.131,-0.514 0.162,-0.532 0.199,-0.545C0.235,-0.557 0.274,-0.563 0.316,-0.563C0.35,-0.563 0.38,-0.56 0.405,-0.554C0.43,-0.547 0.451,-0.539 0.466,-0.53L0.466,-0.403L0.459,-0.4C0.442,-0.411 0.425,-0.419 0.406,-0.426C0.387,-0.432 0.365,-0.435 0.338,-0.435C0.319,-0.435 0.3,-0.432 0.283,-0.426C0.266,-0.419 0.251,-0.41 0.238,-0.397C0.225,-0.384 0.215,-0.367 0.208,-0.347C0.201,-0.327 0.197,-0.303 0.197,-0.276C0.197,-0.221 0.21,-0.18 0.237,-0.153C0.264,-0.126 0.298,-0.113 0.34,-0.113C0.369,-0.113 0.393,-0.117 0.414,-0.125C0.434,-0.132 0.453,-0.142 0.47,-0.154L0.478,-0.151L0.478,-0.03C0.463,-0.019 0.442,-0.009 0.416,0C0.389,0.009 0.357,0.013 0.319,0.013Z" style="fill-rule:nonzero;"/>
                </g>
                <g transform="matrix(114,0,0,114,374.624,108.057)">
                    <path d="M0.307,-0.427C0.29,-0.427 0.274,-0.424 0.26,-0.419C0.245,-0.413 0.231,-0.405 0.218,-0.394L0.218,0L0.046,0L0.046,-0.722L0.218,-0.751L0.218,-0.483C0.227,-0.494 0.238,-0.504 0.249,-0.514C0.26,-0.523 0.272,-0.532 0.286,-0.539C0.299,-0.546 0.314,-0.552 0.331,-0.557C0.347,-0.561 0.365,-0.563 0.385,-0.563C0.437,-0.563 0.479,-0.548 0.511,-0.517C0.542,-0.486 0.558,-0.437 0.558,-0.37L0.558,0L0.385,0L0.385,-0.342C0.385,-0.373 0.378,-0.395 0.364,-0.408C0.349,-0.421 0.33,-0.427 0.307,-0.427Z" style="fill-rule:nonzero;"/>
                </g>
                <g transform="matrix(114,0,0,114,443.138,108.057)">
                    <path d="M0.296,-0.447C0.268,-0.447 0.245,-0.439 0.227,-0.422C0.209,-0.405 0.197,-0.378 0.191,-0.341L0.384,-0.341C0.382,-0.377 0.374,-0.404 0.36,-0.421C0.346,-0.438 0.325,-0.447 0.296,-0.447ZM0.53,-0.028C0.511,-0.018 0.486,-0.009 0.453,0C0.42,0.009 0.38,0.013 0.332,0.013C0.227,0.013 0.148,-0.013 0.097,-0.065C0.046,-0.117 0.02,-0.189 0.02,-0.28C0.02,-0.321 0.027,-0.359 0.04,-0.394C0.053,-0.429 0.071,-0.458 0.095,-0.484C0.119,-0.509 0.148,-0.528 0.182,-0.542C0.216,-0.556 0.254,-0.563 0.295,-0.563C0.335,-0.563 0.371,-0.557 0.404,-0.544C0.437,-0.531 0.464,-0.512 0.486,-0.485C0.508,-0.458 0.524,-0.424 0.534,-0.383C0.544,-0.341 0.546,-0.291 0.541,-0.233L0.189,-0.233C0.196,-0.191 0.212,-0.161 0.238,-0.143C0.263,-0.125 0.3,-0.116 0.348,-0.116C0.387,-0.116 0.42,-0.12 0.447,-0.128C0.474,-0.135 0.499,-0.145 0.523,-0.156L0.53,-0.153L0.53,-0.028Z" style="fill-rule:nonzero;"/>
                </g>
            </g>
            <g transform="matrix(0.990455,0,0,1.37051,1.44272,1.03247)">
                <path d="M320.999,596.351L771.843,659.231L774.33,641.404L323.486,578.524L320.999,596.351Z"/>
            </g>
        </g>
    </g>
</svg>
